<svg xmlns="http://www.w3.org/2000/svg" width="256" height="256" viewBox="0 0 256 256"><rect width="256" height="256" fill="#F4F2ED" rx="60"/><path fill="#1b3888" d="M138.654 61.978c-19.965-11.877-43.928-14.381-65.981-8.303-26.146 7.205-47.232 27.29-56.506 52.635q-.042.116-.09.004-.015-.044-.036-.084-.02-.042-.009-.087 8.76-34.582 37.616-54.508c31.87-22.002 74.863-21.072 106.098 1.736a.2.2 0 0 1-.04.35l-20.39 8.306a.749.745-40.7 0 1-.664-.049zm2.162 1.25a.052.052 0 0 1 .007-.093l20.564-8.38a.278.275 53.2 0 1 .275.038q27.468 21.747 34.157 55.91c2.77 14.146 1.737 29.329-2.348 43.005-11.168 37.388-45.64 64.051-84.663 65.244q-2.978.093-.03-.344 27.886-4.133 48.25-24.875c17.338-17.657 25.835-43.11 23.193-67.803q-1.933-18.094-11.382-33.968-10.456-17.57-28.023-28.734"/><path fill="#45a945" d="M210.203 33.89h.385Q238 64.34 239.97 105.454v8.386q-1.922 40.493-28.164 70.318c-22.341 25.393-55.417 39.216-89.344 37.86a43 43 0 0 1-4.1-.367q-.01-.003 0-.003 36.935-1.574 64.428-25.248c22.176-19.095 35.157-47.67 35.114-77.042-.046-28.609-11.915-55.45-32.682-74.902a.23.23 0 0 1 .07-.381z"/><g fill="#221e1f"><path d="M95.688 74.918q1.937 1.6 2.7 2.873 2.449 4.094 5.138 8.048.136.196-.105.196l-3.655-.018a.367.362-14.8 0 1-.308-.178c-1.688-2.803-3.432-5.914-5.567-8.38q-1.807-2.091-4.626-1.668-.133.021-.133.156v9.888q0 .19-.185.19h-2.918q-.333 0-.33-.33l.13-23.204q0-.171.17-.171c2.925-.018 6.678-.356 9.155.566 5.176 1.925 5.697 9.397.564 11.798q-.2.092-.03.232zm-6.5-9.535-.015 7.112a.086.086 0 0 0 .085.084l2.752.009a3.704 3.254.1 0 0 3.711-3.25v-.769a3.704 3.254.1 0 0-3.697-3.265l-2.752-.003a.086.086 0 0 0-.084.082"/><path d="M109.588 70.347c-3.665 4.136-3.47 10.252 1.323 13.459 3.233 2.168 7.474 2.311 11.11 1.19a.166.17-.3 0 1 .21.21l-.975 3.219q-.06.196-.262.232-6.13 1.111-11.233-1.677c-7.033-3.844-8.121-12.797-3.039-18.66 5.508-6.352 14.5-4.53 20.042.69q.159.15.092.359l-.958 3.14q-.086.275-.272.056c-4.048-4.715-11.43-7.415-16.038-2.218M75.643 81.322l-9.17 2.662a.14.14 0 0 0-.1.118l-.823 7.33a.14.14 0 0 1-.105.12l-3.072.865a.14.14 0 0 1-.179-.152l2.863-25.442a.14.14 0 0 1 .105-.117l2.143-.6a.14.14 0 0 1 .149.043l16.43 19.835a.14.14 0 0 1-.067.222l-3.079.922a.14.14 0 0 1-.147-.043l-4.799-5.721a.14.14 0 0 0-.149-.042m-8.866-.861a.112.112 0 0 0 .143.119l6.39-1.907a.112.112 0 0 0 .055-.175l-5.467-6.663a.112.112 0 0 0-.196.06zm77.073 4.69 4.297-8.957a.18.18 0 0 1 .236-.084l2.792 1.307a.18.18 0 0 1 .088.241L141.14 98.796a.18.18 0 0 1-.236.084l-2.79-1.32a.18.18 0 0 1-.085-.239l4.294-8.982a.18.18 0 0 0-.083-.236L131 82.743a.18.18 0 0 0-.239.081l-4.274 8.98a.18.18 0 0 1-.236.083l-2.8-1.32a.18.18 0 0 1-.087-.242l10.125-21.142a.18.18 0 0 1 .236-.082l2.796 1.338a.18.18 0 0 1 .082.236l-4.314 8.969a.18.18 0 0 0 .084.236l11.237 5.354a.18.18 0 0 0 .238-.083zm-91.71 4.554-8.384 4.542a.145.145 0 0 0-.074.14l.75 7.341a.145.145 0 0 1-.076.14l-2.803 1.487a.145.145 0 0 1-.212-.115l-2.63-25.47a.145.145 0 0 1 .078-.14l1.963-1.022a.14.14 0 0 1 .157.01l20.295 15.894a.145.145 0 0 1-.017.241l-2.819 1.526a.14.14 0 0 1-.156-.01l-5.918-4.55a.14.14 0 0 0-.156-.012zm-8.832.987a.115.115 0 0 0 .166.084l5.842-3.16a.115.115 0 0 0 .017-.192l-6.828-5.333a.115.115 0 0 0-.182.105zm4.35 59.169c16.837-8.823 36.364 1.282 36.49 20.979.073 11.982-8.538 22.941-20.501 25.13q-3.43.63-7.378.249c-10.533-1.012-18.582-7.424-22.18-17.312q-1.824-5.011-2.017-9.924c-.959-24.411 13.69-45.994 33.632-58.883q.143-.096.248.04l7.093 9.005a.17.17 0 0 1-.045.252c-11.201 6.726-21.485 17.674-25.544 30.294q-.108.329.2.17zm24.232 20.627c-.377-8.748-8.492-13.267-16.563-12.235q-5.738.738-10.455 4.34-.14.113-.182.283c-2.115 8.747.978 19.253 10.76 21.594q3.018.726 6.003.097c7.019-1.488 10.731-7.224 10.437-14.08m65.67-2.645v27.29a.15.15 0 0 1-.152.151h-11.827a.15.15 0 0 1-.15-.15v-27.291a.15.15 0 0 0-.153-.153H89.84a.15.15 0 0 1-.15-.15l-.006-5.445a.15.15 0 0 1 .035-.096l42.546-51.94a.15.15 0 0 1 .114-.055h5.03a.15.15 0 0 1 .152.152v46.363a.15.15 0 0 0 .152.153h8.774a.15.15 0 0 1 .153.152l-.004 10.716a.15.15 0 0 1-.152.15h-8.77a.15.15 0 0 0-.153.153m-12.13-34.87a.112.112 0 0 0-.195-.07l-19.01 23.588a.112.112 0 0 0 .088.18h19.006a.11.11 0 0 0 .112-.11z"/></g><path fill="#0581ab" d="M215.644 107.652c6.711 59.276-38.801 111.089-98.259 112.404q-.084 0-.017-.052l.077-.063a.17.17 0 0 1 .087-.044q32.993-4.673 55.666-28.238c28.364-29.48 33.735-74.741 13.564-110.234q-9.03-15.896-23.32-27.246a.163.163 0 0 1 .041-.278l20.282-8.258a.43.43 0 0 1 .455.084c17.356 16.39 28.725 38.105 31.424 61.924z"/></svg>
