<svg xmlns="http://www.w3.org/2000/svg" width="256" height="256" fill="none" viewBox="0 0 256 256"><rect width="256" height="256" fill="#F4F2ED" rx="60"/><path fill="#000" d="M229.015 88.504 133.038 24.52c-3.276-2.018-6.773-2.033-10.076 0L26.985 88.504c-2.46 1.64-3.985 4.571-3.985 7.5v63.983c0 2.931 1.525 5.86 3.985 7.499l95.977 63.995c3.274 2.017 6.773 2.035 10.076 0l95.977-63.995c2.46-1.639 3.985-4.568 3.985-7.497V96.004c0-2.929-1.525-5.86-3.985-7.5m-91.99-39.61 70.662 47.11-31.524 21.094-39.139-26.135V48.896zm-18.049 0v42.07l-39.142 26.133-31.523-21.093zm-77.929 63.983 22.617 15.118-22.617 15.119zm77.929 94.221-70.665-47.111 31.523-21.093 39.142 26.133zM128 149.323l-31.874-21.328L128 106.667l31.874 21.328zm9.024 57.775v-42.071l39.139-26.133 31.524 21.093-70.662 47.111zm77.93-63.984-22.618-15.119 22.618-15.116z"/></svg>