<svg xmlns="http://www.w3.org/2000/svg" width="256" height="256" fill="none" viewBox="0 0 256 256"><defs><clipPath id="FirebaseNew-Light_svg__a"><path fill="#fff" d="M0 0h327v409H0z"/></clipPath></defs><rect width="256" height="256" fill="#F4F2ED" rx="60"/><g clip-path="url(#FirebaseNew-Light_svg__a)" transform="translate(42.025 19.98)scale(.52584)"><path fill="#FF9100" d="M104.884 391.164c16.491 6.638 34.384 10.577 53.17 11.232 25.425.888 49.6-4.368 71.215-14.354-25.918-10.183-49.392-25.074-69.425-43.589-12.988 20.792-32.194 37.215-54.96 46.71"/><path fill="#FFC400" d="M159.84 344.459c-45.732-42.295-73.473-103.51-71.13-170.654.077-2.18.193-4.36.327-6.538a118.4 118.4 0 0 0-61.85.647c-12.207 21.384-19.574 45.919-20.491 72.2-2.369 67.826 38.676 127.09 98.184 151.056 22.767-9.495 41.972-25.9 54.96-46.71"/><path fill="#FF9100" d="M159.842 344.458c10.632-17.016 17.078-36.965 17.828-58.456 1.975-56.534-36.03-105.167-88.63-118.737-.136 2.178-.25 4.358-.326 6.537-2.346 67.144 25.397 128.36 71.128 170.656"/><path fill="#DD2C00" d="M171.788 8.353c-29.958 24-53.615 55.646-67.928 92.102-8.194 20.881-13.343 43.311-14.846 66.823 52.6 13.572 90.606 62.203 88.632 118.737-.75 21.493-7.216 41.42-17.83 58.456a221.5 221.5 0 0 0 69.427 43.59c52.023-24.049 88.934-75.795 91.071-137.001 1.385-39.656-13.85-75-35.38-104.832C262.199 114.678 171.788 8.353 171.788 8.353"/></g></svg>