<svg xmlns="http://www.w3.org/2000/svg" width="256" height="256" viewBox="0 0 256 256"><rect width="256" height="256" fill="#242938" rx="60"/><g fill="#0ae448"><path d="M86.285 125.584v.032l-2.63 11.419c-.143.646-.79 1.121-1.533 1.121h-3.18a.53.53 0 0 0-.51.38c-2.932 9.947-6.902 16.787-12.145 20.891-4.46 3.496-9.958 5.124-17.304 5.124-6.6 0-11.05-2.122-14.824-6.31-4.986-5.543-7.047-14.604-5.799-25.527 2.25-20.505 12.886-41.196 33.364-41.196 6.23-.057 11.12 1.865 14.523 5.703 3.598 4.056 5.424 10.168 5.434 18.165a1.346 1.346 0 0 1-1.344 1.312H65.332a1.03 1.03 0 0 1-.996-1.003c-.122-5.53-1.763-8.225-5.023-8.225-5.752 0-9.145 7.809-10.944 12.139-2.514 6.046-3.794 12.611-3.542 19.152.12 3.045.61 7.328 3.5 9.1 2.563 1.575 6.22.532 8.435-1.211 2.213-1.74 3.995-4.754 4.744-7.503.105-.382.113-.678.012-.812-.105-.135-.396-.167-.619-.167h-3.853a1.4 1.4 0 0 1-1.072-.494 1.03 1.03 0 0 1-.213-.886l2.634-11.441c.13-.588.661-1.029 1.315-1.11v-.026h25.285c.06 0 .12 0 .177.012.656.083 1.118.695 1.106 1.361h.005Z"/><path d="M129.817 112.456a1.34 1.34 0 0 1-1.341 1.3h-13.82c-.906 0-1.662-.734-1.662-1.628 0-4.034-1.396-5.997-4.25-5.997s-4.695 1.755-4.749 4.818c-.06 3.414 1.87 6.516 7.368 11.847 7.239 6.79 10.14 12.807 10 20.757-.228 12.854-8.97 21.164-22.27 21.164-6.793 0-11.983-1.818-15.434-5.402-3.503-3.638-5.109-8.979-4.773-15.874a1.34 1.34 0 0 1 1.344-1.298h14.295a1.35 1.35 0 0 1 1.033.512 1.18 1.18 0 0 1 .26.94c-.16 2.487.273 4.345 1.253 5.373.626.666 1.5 1.004 2.59 1.004 2.64 0 4.188-1.868 4.246-5.116.05-2.81-.84-5.275-5.681-10.257-6.254-6.11-11.862-12.422-11.688-22.348.102-5.755 2.389-11.02 6.44-14.824 4.283-4.02 10.141-6.144 16.941-6.144 6.812.049 11.975 1.99 15.345 5.774 3.192 3.589 4.73 8.768 4.558 15.397h-.005Zm42.843 49.843.09-68.373a1.285 1.285 0 0 0-1.295-1.304h-21.39c-.719 0-1.035.617-1.24 1.028l-30.97 68.233v.012l-.012.015c-.343.84.308 1.738 1.216 1.738h14.952c.807 0 1.34-.245 1.605-.754l2.97-7.136c.364-.95.433-1.038 1.47-1.038h14.286c.994 0 1.016.02.999.992l-.32 6.633a1.285 1.285 0 0 0 1.294 1.303h15.103a1.28 1.28 0 0 0 .986-.446 1.12 1.12 0 0 0 .255-.903m-26.462-22.829q-.208.001-.338-.012a.357.357 0 0 1-.318-.448q.043-.15.13-.399l10.714-26.502c.093-.262.21-.52.333-.769.174-.355.384-.38.45-.115.057.22-1.229 27.215-1.229 27.215-.1 1.01-.146 1.052-1.143 1.136l-8.589-.1h-.02l.008-.006Zm56.935-46.848h-11.356c-.6 0-1.272.318-1.431 1.033l-15.801 68.61a1.03 1.03 0 0 0 .215.89 1.4 1.4 0 0 0 1.07.495h14.192c.762 0 1.286-.375 1.427-1.023 0 0 1.721-7.755 1.724-7.78.122-.604-.088-1.074-.632-1.358a56 56 0 0 1-.764-.399l-2.46-1.278-2.447-1.277-.948-.492a.46.46 0 0 1-.25-.417.487.487 0 0 1 .485-.474l7.78.034c2.325.012 4.653-.152 6.941-.573 16.107-2.974 26.804-15.874 27.112-33.427.262-14.98-8.1-22.572-24.845-22.572zm-3.865 40.83h-.304c-.68 0-.803-.074-.825-.099-.01-.017 4.487-19.76 4.49-19.788.115-.57.11-.898-.243-1.091-.45-.25-7.015-3.711-7.015-3.711a.46.46 0 0 1-.247-.421.48.48 0 0 1 .482-.47h10.381c3.231.098 5.033 2.988 4.947 7.923-.15 8.548-4.213 17.355-11.666 17.659Z"/></g></svg>