<svg xmlns="http://www.w3.org/2000/svg" width="256" height="256" fill="none" viewBox="0 0 256 256"><rect width="256" height="256" fill="#242938" rx="60"/><path fill="url(#Nix-Dark_svg__a)" fill-rule="evenodd" d="m89.032 129.893 48.723 84.401-22.391.21-13.008-22.676-13.101 22.555-11.126-.005-5.698-9.844 18.665-32.094-13.25-23.057z" clip-rule="evenodd"/><path fill="url(#Nix-Dark_svg__b)" fill-rule="evenodd" d="m106.618 95.127-48.732 84.396-11.378-19.287 13.134-22.603-26.083-.068L28 127.928l5.676-9.857 37.127.117 13.343-23.003z" clip-rule="evenodd"/><path fill="url(#Nix-Dark_svg__c)" fill-rule="evenodd" d="m110.356 162.592 97.456.005-11.014 19.496-26.142-.072 12.983 22.623-5.567 9.632-11.375.013-18.461-32.211-26.593-.054z" clip-rule="evenodd"/><path fill="url(#Nix-Dark_svg__d)" fill-rule="evenodd" d="M167.079 125.611 118.355 41.21l22.392-.21 13.008 22.676 13.101-22.555 11.125.005 5.699 9.844-18.665 32.094 13.249 23.057z" clip-rule="evenodd"/><path fill="url(#Nix-Dark_svg__e)" fill-rule="evenodd" d="m89.032 129.892 48.723 84.401-22.391.21-13.008-22.675-13.101 22.554-11.126-.004-5.698-9.845 18.665-32.094-13.25-23.056z" clip-rule="evenodd"/><path fill="url(#Nix-Dark_svg__f)" fill-rule="evenodd" d="m145.553 92.718-97.455-.005 11.014-19.496 26.141.072-12.982-22.623 5.566-9.632 11.375-.013 18.462 32.211 26.592.054z" clip-rule="evenodd"/><path fill="url(#Nix-Dark_svg__g)" fill-rule="evenodd" d="m149.382 160.738 48.732-84.396 11.377 19.286-13.133 22.603 26.083.069 5.559 9.637-5.677 9.857-37.126-.117-13.343 23.003z" clip-rule="evenodd"/><defs><linearGradient id="Nix-Dark_svg__a" x1="73.76" x2="109.442" y1="132.543" y2="194.258" gradientUnits="userSpaceOnUse"><stop stop-color="#699AD7"/><stop offset=".243" stop-color="#7EB1DD"/><stop offset="1" stop-color="#7EBAE4"/></linearGradient><linearGradient id="Nix-Dark_svg__b" x1="96.686" x2="61.081" y1="83.226" y2="144.985" gradientUnits="userSpaceOnUse"><stop stop-color="#699AD7"/><stop offset=".243" stop-color="#7EB1DD"/><stop offset="1" stop-color="#7EBAE4"/></linearGradient><linearGradient id="Nix-Dark_svg__c" x1="105.016" x2="176.304" y1="177.143" y2="177.099" gradientUnits="userSpaceOnUse"><stop stop-color="#699AD7"/><stop offset=".243" stop-color="#7EB1DD"/><stop offset="1" stop-color="#7EBAE4"/></linearGradient><linearGradient id="Nix-Dark_svg__d" x1="182.351" x2="146.669" y1="122.96" y2="61.246" gradientUnits="userSpaceOnUse"><stop stop-color="#699AD7"/><stop offset=".243" stop-color="#7EB1DD"/><stop offset="1" stop-color="#7EBAE4"/></linearGradient><linearGradient id="Nix-Dark_svg__e" x1="77.448" x2="112.497" y1="130.444" y2="192.398" gradientUnits="userSpaceOnUse"><stop stop-color="#415E9A"/><stop offset=".232" stop-color="#4A6BAF"/><stop offset="1" stop-color="#5277C3"/></linearGradient><linearGradient id="Nix-Dark_svg__f" x1="150.867" x2="79.689" y1="82.41" y2="81.787" gradientUnits="userSpaceOnUse"><stop stop-color="#415E9A"/><stop offset=".232" stop-color="#4A6BAF"/><stop offset="1" stop-color="#5277C3"/></linearGradient><linearGradient id="Nix-Dark_svg__g" x1="155.652" x2="191.781" y1="170.494" y2="109.164" gradientUnits="userSpaceOnUse"><stop stop-color="#415E9A"/><stop offset=".232" stop-color="#4A6BAF"/><stop offset="1" stop-color="#5277C3"/></linearGradient></defs></svg>