<svg xmlns="http://www.w3.org/2000/svg" width="256" height="256"><rect width="256" height="256" fill="#242938" rx="60"/><g fill-rule="evenodd"><path fill="#B3B3B3" d="M60.704 151.913c-11.038 0-16.516-6.62-18.664-13.535 2.397 11.25 15.344 22.21 56.198 27.078 38.605 4.632 63.725-6.988 72.224-12.393 0 0 5.731-2.483 2.299 1.347 0 0-24.331 22.027-71.932 22.31-47.693.235-85.517-23.36-85.325-47.295-.227-23.835 37.634-47.48 85.325-47.288 47.693.227 71.932 22.303 71.932 22.303 3.441 3.823-2.3 1.362-2.3 1.362-8.477-5.392-33.518-16.017-72.223-12.393-38.017 3.596-50.432 16.303-54.638 24.786-1.582 3.292-2.306 6.398-2.482 9.52 1.027-8.165 6.2-17.736 19.551-17.736 15.146 0 19.742 12.393 19.742 20.877 0 8.585-4.625 20.977-19.742 20.977zm153.448-8.243h20.133v7.194h-28.64V111.11h8.464v32.511zm-31.078-14.216h16.906v21.459h-5.639l-.844-4.987c-2.143 2.44-5.25 6.036-12.606 6.036-9.754 0-18.572-6.859-18.572-20.784 0-10.867 6.15-21.075 19.842-21.075 12.407 0 17.294 7.916 17.784 13.351h-8.462c0-1.547-2.873-6.534-8.854-6.534-6.029 0-11.633 4.1-11.633 14.301 0 10.875 6.029 13.643 11.826 13.643 1.858 0 8.065-.718 9.776-8.747h-9.42v-6.695zM60.904 114.87c-8.798 0-14.075 6.803-14.075 16.21 0 9.356 5.3 16.21 14.074 16.21 8.797 0 14.075-6.81 14.075-16.21 0-9.357-5.3-16.21-14.075-16.21m22.772 10.59h4.108v3.591h.1c1.035-1.462 3.014-4.335 7.718-4.335 6.88 0 11.826 5.724 11.826 12.876 0 6.08-3.569 14.018-12.415 14.018-3.468 0-5.746-1.603-6.873-3.405h-.1v12.776h-4.362zm11.045 22.496c4.753 0 7.974-4.044 7.974-9.627 0-3.263-1.34-9.725-8.072-9.725-6.285 0-6.981 6.654-6.981 10.777 0 6.746 4.313 8.555 7.079 8.555zm39.094-5.001c-.149 1.206-1.34 4.816-4.604 6.944-1.191.781-2.873 1.76-7.03 1.76-7.278 0-11.626-5.399-11.626-12.776 0-7.881 3.86-14.116 12.415-14.116 7.476 0 11.137 5.839 11.137 14.875h-18.963c0 5.307 2.526 8.363 7.528 8.363 4.108 0 6.541-3.107 6.69-5.008h4.355zm-4.611-6.754c-.249-3.937-1.936-7.584-7.235-7.584-4.008 0-7.172 3.647-7.172 7.584zm29.028 14.685h-4.362v-15.642c0-4.413-1.292-6.654-5.541-6.654-2.475 0-6.832 1.56-6.832 8.455v13.826h-4.362v-25.452h4.115v3.59h.1c.944-1.362 3.363-4.327 7.818-4.327 4.008 0 9.066 1.603 9.066 8.853v17.352"/><path fill="#5586A4" d="M58.753 149.055c-11.145 0-16.713-6.62-18.863-13.535 2.426 11.243 15.536 22.21 56.788 27.077 38.996 4.618 64.406-6.988 73.003-12.4 0 0 5.795-2.475 2.319 1.355 0 0-24.531 22.027-72.813 22.31-48.187.227-86.494-23.36-86.204-47.295C12.75 102.73 51 79.088 99.19 79.279c48.182.227 72.813 22.303 72.813 22.303 3.476 3.822-2.32 1.362-2.32 1.362-8.57-5.392-33.916-16.018-73.003-12.4-38.512 3.603-51.02 16.308-55.225 24.792a24.3 24.3 0 0 0-2.512 9.52c1.035-8.165 6.263-17.743 19.742-17.743 15.251 0 19.94 12.4 19.94 20.978s-4.674 20.884-19.94 20.884zm155.4-8.25h20.33v7.2h-28.93v-39.768h8.548v32.526zm-31.377-14.21h17.104v21.454h-5.697l-.852-4.972c-2.17 2.433-5.314 6.036-12.805 6.036-9.874 0-18.863-6.86-18.863-20.785 0-10.867 6.215-21.075 20.033-21.075 12.514 0 17.494 7.916 17.982 13.352h-8.548c0-1.548-2.915-6.534-8.953-6.534-6.1 0-11.733 4.1-11.733 14.301 0 10.874 6.1 13.642 11.924 13.642 1.88 0 8.15-.717 9.875-8.746h-9.52v-6.696zM58.653 112.012c-8.895 0-14.265 6.803-14.265 16.21 0 9.35 5.356 16.21 14.265 16.21 8.895 0 14.273-6.81 14.273-16.21 0-9.356-5.356-16.21-14.273-16.21m23.07 10.584h4.15v3.596h.1c1.056-1.462 3.05-4.335 7.81-4.335 6.959 0 11.924 5.724 11.924 12.876 0 6.073-3.61 14.018-12.514 14.018-3.505 0-5.803-1.604-6.96-3.405h-.1v12.776h-4.405v-35.477zm11.137 22.51c4.81 0 8.065-4.05 8.065-9.634 0-3.27-1.362-9.732-8.165-9.732-6.348 0-7.051 6.661-7.051 10.783 0 6.747 4.355 8.556 7.151 8.556zm39.485-5.016c-.15 1.22-1.348 4.816-4.653 6.952-1.199.78-2.902 1.76-7.1 1.76-7.365 0-11.727-5.4-11.727-12.783 0-7.875 3.908-14.111 12.605-14.111 7.555 0 11.238 5.838 11.238 14.875h-19.154c0 5.307 2.546 8.358 7.611 8.358 4.157 0 6.605-3.1 6.754-5.002h4.413zm-4.667-6.746c-.257-3.945-1.958-7.584-7.314-7.584-4.057 0-7.264 3.64-7.264 7.584zm29.32 14.677h-4.406v-15.635c0-4.42-1.306-6.654-5.612-6.654-2.504 0-6.91 1.553-6.91 8.456v13.826h-4.413V122.56h4.157v3.59h.1c.95-1.362 3.398-4.327 7.909-4.327 4.05 0 9.158 1.603 9.158 8.853v17.26"/><path fill="#999" d="M243.018 147.622a3.67 3.67 0 0 1-1.88 3.193c-.582.332-1.205.49-1.879.49s-1.291-.163-1.872-.49a3.74 3.74 0 0 1-1.377-1.348 3.6 3.6 0 0 1-.503-1.845 3.63 3.63 0 0 1 .503-1.838 3.76 3.76 0 0 1 3.25-1.838 3.76 3.76 0 0 1 3.255 1.838 3.63 3.63 0 0 1 .503 1.838m-.723 0c0-.815-.297-1.518-.893-2.092a2.94 2.94 0 0 0-2.136-.879 2.94 2.94 0 0 0-2.143.879 2.8 2.8 0 0 0-.886 2.092 2.82 2.82 0 0 0 .886 2.1q.89.871 2.143.871a2.9 2.9 0 0 0 2.136-.872q.893-.868.893-2.099m-4.73-1.965h1.794c.503 0 .879.1 1.106.305s.341.469.341.801a.98.98 0 0 1-.263.688q-.258.29-.823.418a1.1 1.1 0 0 1 .342.178 1.6 1.6 0 0 1 .32.412c.007.008.226.39.651 1.128h-1.184l-.773-1.34c-.127-.15-.264-.22-.39-.22-.037 0-.072 0-.128.015v1.547h-1zm1 1.667h.433q.426.002.61-.134c.183-.136.178-.205.178-.354s-.057-.269-.171-.354-.305-.142-.581-.142h-.469zm0 0"/><path fill="#5586A4" d="M243.018 146.672a3.54 3.54 0 0 1-.503 1.838 3.6 3.6 0 0 1-1.376 1.348 3.76 3.76 0 0 1-1.88.495c-.666 0-1.291-.17-1.872-.495s-1.035-.774-1.377-1.348a3.54 3.54 0 0 1-.503-1.838q.002-.98.503-1.845a3.63 3.63 0 0 1 1.377-1.34q.871-.49 1.872-.49c1 0 1.306.163 1.88.49s1.042.774 1.376 1.34.503 1.192.503 1.845m-.723 0a2.78 2.78 0 0 0-.893-2.092c-.588-.588-1.306-.879-2.136-.879s-1.552.29-2.143.88a2.8 2.8 0 0 0-.886 2.091 2.82 2.82 0 0 0 .886 2.1 2.94 2.94 0 0 0 2.143.866c.838 0 1.548-.283 2.136-.866s.893-1.277.893-2.1m-4.73-1.972h1.794c.503 0 .879.107 1.106.305s.341.476.341.808q.002.393-.263.689-.258.28-.823.417a1.1 1.1 0 0 1 .342.178 1.8 1.8 0 0 1 .32.405q.012.015.651 1.135h-1.184l-.773-1.34c-.127-.149-.264-.227-.39-.227-.037 0-.072.007-.128.015v1.552h-1zm1 1.674h.433q.426 0 .61-.141a.44.44 0 0 0 .178-.354.42.42 0 0 0-.171-.347q-.167-.14-.581-.142h-.469zm0 0"/></g></svg>