<svg xmlns="http://www.w3.org/2000/svg" width="256" height="256"><rect width="256" height="256" fill="#242938" rx="60"/><path fill="#18B6F6" d="m197.058 224.831-34.717-34.537-.49.086v-.367l-73.826-73.01 18.228-17.567L95.53 38.01l-50.728 62.933c-8.612 8.7-10.269 22.921-4.028 33.362l31.704 52.627c4.848 8.069 12.464 13.259 23.1 12.877 22.516-.801 32.412-.801 32.412-.801l69.051 25.807.016.025zm0 0"/><path fill="#AC7EF4" d="M214.213 128.04c4.995-10.306 6.783-19.323 1.852-28.388l-7.02-12.913-3.64-6.63-1.414-2.583-.133.148-19.093-33.122a26.69 26.69 0 0 0-23.435-13.39l-16.743.476-49.981.131a26.81 26.81 0 0 0-22.928 13.212l-30.366 60.313 54.346-67.611 71.29 78.396-12.76 12.928 7.618 61.333.107-.14v.18h-.107l.148.147 5.942 5.788 28.76 28.087c1.205 1.168 3.166-.232 2.364-1.672l-17.78-34.98"/><path fill="#FFF" d="M167.118 115.882 95.64 37.884l10.154 61.076-18.19 17.654 74.067 73.61-6.674-61.107 12.122-13.211zm0 0"/></svg>