<svg xmlns="http://www.w3.org/2000/svg" width="256" height="256" viewBox="0 0 256 256"><rect width="256" height="256" fill="#F4F2ED" rx="60"/><g fill="#000"><path d="M158.706 175.06v11.682h6.675v-3.338h-3.338v-20.026h-3.338zm10.012-10.013v1.669h3.338v-3.338h-3.338z"/><path d="M42.558 128v85.442h170.884V42.558H42.558zm160.204 0v74.762H53.238V53.238h149.524z"/><path d="M175.394 175.06v11.682h16.688v-16.688H178.73v-6.676h-3.338zm13.35 3.338v5.006h-10.013V173.39h10.013zm-90.114 0v8.344h3.337V173.39h13.35v-3.337H98.63zm20.025-6.676v1.67h13.35v3.337h-13.35v10.013h16.688v-16.688h-16.688zm13.35 10.013v1.669h-10.013v-3.338h10.013zm6.675-3.337v8.344h13.351v3.337H138.68v3.338h16.688v-23.363h-3.337v13.35h-10.013v-13.35h-3.338zm30.038 0v8.344h3.338v-16.688h-3.338z"/></g></svg>