<svg xmlns="http://www.w3.org/2000/svg" width="256" height="256" fill="none" viewBox="0 0 256 256"><rect width="256" height="256" fill="#F4F2ED" rx="60"/><path fill="#36C" d="M43.935 127.954a120 120 0 0 0 4.506 32.886c3.041 10.459 7.518 20.505 13.32 29.888a8.2 8.2 0 0 1 1 2.53 3.6 3.6 0 0 1 0 1.967 3.56 3.56 0 0 1-1 1.406l-1.403 1.03-8.312 4.685a137 137 0 0 1-11.116-18.739 122.5 122.5 0 0 1-7.41-18.738 117 117 0 0 1-4.207-18.739 143.8 143.8 0 0 1 0-38.788 117 117 0 0 1 4.207-18.739 124.5 124.5 0 0 1 7.41-18.738A138.4 138.4 0 0 1 51.746 53l8.312 4.778 1.402 1.03a3.75 3.75 0 0 1 1.001 1.406 3.6 3.6 0 0 1 0 1.968 8.4 8.4 0 0 1-1.001 2.53c-11.617 19.297-17.658 41.094-17.525 63.242m33.848 32.886a13.5 13.5 0 0 1 1.102-5.528 14 14 0 0 1 3.105-4.497c2.119-1.986 4.825-3.333 7.77-3.868a16 16 0 0 1 8.753.87c3.608 1.433 6.48 4.12 8.012 7.495a13 13 0 0 1 1.202 5.528 12.9 12.9 0 0 1-1.202 5.528 14.6 14.6 0 0 1-3.205 4.497 14.7 14.7 0 0 1-4.807 2.998 16.72 16.72 0 0 1-11.817 0 13.98 13.98 0 0 1-7.877-7.618 13.3 13.3 0 0 1-1.036-5.405m108.156-44.223-5.407 8.807-17.526-9.369-3.405-2.155a13.5 13.5 0 0 1-2.704-2.436 16.2 16.2 0 0 1 1.002 7.121v18.738h-10.015v-18.738a19 19 0 0 1 1.202-7.121 18 18 0 0 1-5.808 4.497l-17.425 9.37-5.408-8.807 17.325-9.37a23.5 23.5 0 0 1 7.511-2.717 18.5 18.5 0 0 1-7.511-2.623l-17.926-9.463 5.408-8.807 17.525 9.369 3.305 2.249a16 16 0 0 1 2.704 2.53 17.6 17.6 0 0 1-.902-7.215V71.738h10.015v18.739c.091 1.248.091 2.5 0 3.748a12 12 0 0 1-1.002 3.373 22.2 22.2 0 0 1 5.909-4.591l17.425-9.37 5.408 8.808-17.325 9.369-3.605 1.686c-1.147.475-2.361.79-3.605.937 1.229.212 2.435.526 3.605.937a20.6 20.6 0 0 1 3.605 1.78zm25.737 11.337a120 120 0 0 0-4.506-32.886c-2.989-10.7-7.431-20.995-13.219-30.638a8.4 8.4 0 0 1-1.002-2.53 4 4 0 0 1 0-1.967 3.37 3.37 0 0 1 1.002-1.405l1.402-1.03L203.965 53a143 143 0 0 1 11.016 18.739 124 124 0 0 1 7.411 18.738 116.7 116.7 0 0 1 4.206 18.739A142 142 0 0 1 228 127.954a142 142 0 0 1-1.302 18.739 116.6 116.6 0 0 1-4.206 18.738 122 122 0 0 1-7.411 18.739 142.5 142.5 0 0 1-11.016 18.738l-8.412-4.685-1.402-1.03a3.3 3.3 0 0 1-1.001-1.406 3.86 3.86 0 0 1 0-1.967 8.2 8.2 0 0 1 1.001-2.53c5.741-9.52 10.15-19.691 13.119-30.263a120.4 120.4 0 0 0 4.306-33.073"/></svg>