<svg xmlns="http://www.w3.org/2000/svg" width="256" height="256" fill="none" viewBox="0 0 256 256"><rect width="256" height="256" fill="#242938" rx="60"/><path fill="#2F406A" d="M191.959 91.979v72.006l-63.866 35.849-.587.512v27.142l.587.512 89.92-49.727V78h-.858l-25.353 13.576v.561"/><path fill="#2379BD" d="m63.616 164.406 64.523 35.641V228L37 178V78h.917l25.434 14.103.268.822v71.794"/><path fill="#03AFEF" d="M63.785 92.557 37 77.837 127.751 28l90.262 49.631-26.09 13.954-64.286-34.91-63.96 35.78"/><path fill="#2F406A" d="m126.944 155.848-.703-.658v-26.717l.703-.356v-.657l24.486-13.384h.76v27.579l-25.408 14.095"/><path fill="#2379BD" d="M101.139 143.086v-29.01h.707l25.027 13.759v28.646l-25.949-13.398"/><path fill="#03AFEF" d="m126.66 99.675-25.103 14.557 25.53 14.401 25.103-14.346-25.534-14.768"/><path fill="#2F406A" d="m95.897 174.203-.67-.667v-27.142l.67-.36v-.667l23.292-13.569h.722v27.962l-24.168 14.289"/><path fill="#2379BD" d="M69.911 160.804v-29.006h.712l25.238 13.759v28.646l-25.946-13.399"/><path fill="#03AFEF" d="M95.068 117.292 69.91 131.798l25.532 14.557 25.101-14.347-25.531-14.767"/><path fill="#2F406A" d="m159.855 174.836-.703-.657v-26.737l.703-.354v-.658l24.487-13.367h.759v27.545l-25.408 14.076"/><path fill="#2379BD" d="M134.578 161.431v-29h.815l25.025 13.759v28.646l-25.95-13.405"/><path fill="#03AFEF" d="m159.889 117.874-24.788 14.24 25.213 14.241 24.787-14.035z"/><path fill="#2F406A" d="m128.842 192.557-.703-.667v-27.144l.703-.36v-.667l24.487-13.567h.76v27.957l-25.409 14.288"/><path fill="#2379BD" d="M102.823 179.108v-28.956h.712l25.237 13.759v28.646l-25.946-13.452"/><path fill="#03AFEF" d="m128.268 135.602-25.445 14.338 25.877 14.136 25.389-14.136-25.824-14.345"/><path fill="#2F406A" d="m126.944 117.874-.703-.669V90.101l.703-.361v-.669L151.43 75.47h.76v28.03z"/><path fill="#2379BD" d="M101.139 104.546V75.469h.707l25.027 13.792v28.613l-25.949-13.432"/><path fill="#03AFEF" d="m126.658 61.544-25.101 14.24 25.532 14.241 25.101-14.034z"/><path fill="#2F406A" d="m95.897 135.595-.67-.674v-27.62l.67-.364v-.674l23.292-13.706h.722v28.244l-24.168 14.433"/><path fill="#2379BD" d="M69.911 122.199v-29.01h.712l25.238 13.76v28.646l-25.946-13.399"/><path fill="#03AFEF" d="M95.068 78.633 69.91 92.797l25.532 14.317 25.101-14.008-25.531-14.42"/><path fill="#2F406A" d="m159.855 136.861-.703-.678v-27.529l.703-.367v-.678l24.487-13.786h.759v28.411l-25.408 14.518"/><path fill="#2379BD" d="M135.101 123.402v-29.58h.783l23.901 13.931v29.108z"/><path fill="#03AFEF" d="m159.889 79.272-24.788 14.235 25.213 14.24 24.787-14.034-25.212-14.447"/><path fill="#2F406A" d="m128.842 153.946-.703-.679V125.78l.703-.367v-.68l24.487-13.821h.76v28.482l-25.247 14.556"/><path fill="#2379BD" d="M102.823 140.451v-29.539h.712l25.237 14.014v29.024z"/><path fill="#03AFEF" d="m128.294 96.987-25.471 14.215 25.85 14.266 25.416-14.059-25.792-14.415"/></svg>