<svg xmlns="http://www.w3.org/2000/svg" width="256" height="256" fill="none"><rect width="256" height="256" fill="#242938" rx="60"/><g fill="#F7FAFC" fill-rule="evenodd" style="transform-origin:-10.8198px -10.8198px"><path fill-rule="nonzero" d="M128.843 28.843c-55.129 0-100 44.871-100 100s44.871 100 100 100 100-44.87 100-100-44.87-100-100.002-100zm0 16.699c46.105 0 83.303 37.197 83.303 83.301s-37.198 83.303-83.303 83.303-83.302-37.196-83.302-83.303 37.198-83.3 83.302-83.3" color="#F7FAFC"/><path d="M104.51 123.785c21.899-17.889 43.318-36.4 65.693-53.767-11.735 18.034-23.806 35.83-35.542 53.862-10.065.047-20.132.047-30.15-.095m18.51 9.97c10.115 0 20.18 0 30.246.144-22.04 17.796-43.365 36.449-65.787 53.767 11.736-18.036 23.805-35.877 35.541-53.91"/></g></svg>