<svg xmlns="http://www.w3.org/2000/svg" width="256" height="256" fill="none" viewBox="0 0 256 256"><rect width="256" height="256" fill="#F4F2ED" rx="60"/><path fill="url(#TailwindCSS-Light_svg__a)" fill-rule="evenodd" d="M83 110q9-36 45-36c36 0 40.5 27 58.5 31.5q18 4.502 31.5-13.5-9 36-45 36c-36 0-40.5-27-58.5-31.5Q96.5 92 83 110m-45 54q9-36 45-36c36 0 40.5 27 58.5 31.5q18 4.502 31.5-13.5-9 36-45 36c-36 0-40.5-27-58.5-31.5q-18-4.502-31.5 13.5" clip-rule="evenodd"/><defs><linearGradient id="TailwindCSS-Light_svg__a" x1="86.5" x2="163.5" y1="74" y2="185.5" gradientUnits="userSpaceOnUse"><stop stop-color="#32B1C1"/><stop offset="1" stop-color="#14C6B7"/></linearGradient></defs></svg>