<svg xmlns="http://www.w3.org/2000/svg" width="256" height="256" fill="none" viewBox="0 0 256 256"><rect width="256" height="256" fill="#F4F2ED" rx="60"/><path fill="#FFC131" d="M164.9 99.42c0 5.3-2.087 10.382-5.804 14.13a19.73 19.73 0 0 1-14.011 5.853 19.73 19.73 0 0 1-14.012-5.853 20.07 20.07 0 0 1-5.804-14.13 20.07 20.07 0 0 1 5.804-14.13 19.73 19.73 0 0 1 14.012-5.854 19.73 19.73 0 0 1 14.011 5.853 20.07 20.07 0 0 1 5.804 14.13"/><path fill="#24C8DB" d="M111.759 136.661c-10.944 0-19.816 8.947-19.816 19.983s8.872 19.984 19.816 19.984 19.815-8.947 19.815-19.984c0-11.036-8.872-19.983-19.815-19.983"/><path fill="#FFC131" fill-rule="evenodd" d="M186.157 163.457a75.3 75.3 0 0 1-26.12 10.718 54 54 0 0 0 2.612-24.161 53.1 53.1 0 0 0 20.787-13.464 53.7 53.7 0 0 0 12.505-21.487 54 54 0 0 0 1.519-24.868 53.8 53.8 0 0 0-9.795-22.872 53.25 53.25 0 0 0-18.992-15.935 52.8 52.8 0 0 0-24.084-5.552 52.8 52.8 0 0 0-23.971 6.029 53.3 53.3 0 0 0-18.677 16.308 87.7 87.7 0 0 0-29.003 8.538 76.4 76.4 0 0 1 18.51-31.1 75.55 75.55 0 0 1 30.658-18.968 75.06 75.06 0 0 1 35.88-2.547 75.34 75.34 0 0 1 32.991 14.45 76.2 76.2 0 0 1 22.647 28.179 76.85 76.85 0 0 1 7.185 35.541 76.8 76.8 0 0 1-9.902 34.871 76 76 0 0 1-24.75 26.32M73.839 90.609l18.554 2.27a54 54 0 0 1 2.342-10.627A75.3 75.3 0 0 0 73.84 90.61" clip-rule="evenodd"/><path fill="#24C8DB" fill-rule="evenodd" d="M70.596 92.607a75.3 75.3 0 0 1 26.3-10.809 53.9 53.9 0 0 0-2.972 24.252 53.1 53.1 0 0 0-20.688 13.551 53.7 53.7 0 0 0-12.392 21.512 54 54 0 0 0-1.425 24.836 53.8 53.8 0 0 0 9.85 22.809 53.24 53.24 0 0 0 19 15.866 52.8 52.8 0 0 0 24.057 5.506 52.8 52.8 0 0 0 23.93-6.042 53.3 53.3 0 0 0 18.647-16.288 87.7 87.7 0 0 0 29.002-8.447 76.4 76.4 0 0 1-18.521 31.063 75.56 75.56 0 0 1-30.647 18.939 75.05 75.05 0 0 1-35.854 2.54 75.34 75.34 0 0 1-32.97-14.432 76.2 76.2 0 0 1-22.647-28.147 76.85 76.85 0 0 1-7.212-35.509 76.8 76.8 0 0 1 9.851-34.859 76.04 76.04 0 0 1 24.69-26.34m112.319 72.848-.361.182z" clip-rule="evenodd"/></svg>