<svg xmlns="http://www.w3.org/2000/svg" width="256" height="256" fill="none" viewBox="0 0 256 256"><rect width="256" height="256" fill="#0E1128" rx="60"/><path fill="#fff" fill-rule="evenodd" d="M191.143 143.122c-1.819 8.725-9.905 31.122-35.696 43.248l-10.355-11.594-17.476 17.489a64.7 64.7 0 0 1-28.57-7.071 64.4 64.4 0 0 1-22.437-18.974c1.856.576 3.773.935 5.712 1.071 2.863.052 5.96-.993 5.96-5.778v-47.194a7.76 7.76 0 0 0-.715-3.521 7.8 7.8 0 0 0-2.227-2.827 7.85 7.85 0 0 0-6.872-1.442c-8.092 1.856-14.554 21.955-14.554 21.955a63.7 63.7 0 0 1 5.686-26.925 63.9 63.9 0 0 1 16.53-22.049 65.25 65.25 0 0 1 32.781-15.054c-8.835 5.012-13.798 13.185-13.798 20.04 0 11.036 6.678 9.699 8.653 8.076v63.696c.337.799.775 1.552 1.305 2.24a9.44 9.44 0 0 0 3.389 2.881 9.5 9.5 0 0 0 4.338 1.014c6.684 0 15.357-7.596 15.357-7.596V103.25c0-5.245-3.971-11.58-7.949-13.755 0 0 7.362-1.299 13.042 3.031a49 49 0 0 1 3.397-3.72c13.257-12.95 25.745-16.638 36.146-18.481 0 0-18.911 14.794-18.911 34.646 0 14.762.385 50.765.385 50.765 7.016 6.745 17.45-2.999 26.879-12.614" clip-rule="evenodd"/><path fill="#fff" fill-rule="evenodd" d="M128.47 23c-20.86 0-41.251 6.158-58.596 17.695A105.1 105.1 0 0 0 31.03 87.816a104.56 104.56 0 0 0-6.002 60.665 104.85 104.85 0 0 0 28.865 53.76 105.6 105.6 0 0 0 54.002 28.735 105.9 105.9 0 0 0 60.938-5.975 105.37 105.37 0 0 0 47.333-38.671 104.66 104.66 0 0 0 17.775-58.333c0-27.847-11.112-54.553-30.891-74.244C183.269 34.063 156.443 23 128.47 23m0 205.787a101.6 101.6 0 0 1-56.253-16.988 100.9 100.9 0 0 1-37.291-45.237 100.4 100.4 0 0 1-5.76-58.239 100.66 100.66 0 0 1 27.711-51.609 101.4 101.4 0 0 1 51.844-27.584c19.641-3.889 40-1.892 58.501 5.738a101.16 101.16 0 0 1 45.439 37.127 100.5 100.5 0 0 1 17.06 56.002c0 26.733-10.667 52.371-29.655 71.274-18.989 18.903-44.742 29.522-71.596 29.522z" clip-rule="evenodd"/></svg>