<svg xmlns="http://www.w3.org/2000/svg" width="256" height="256" fill="none" viewBox="0 0 256 256"><rect width="256" height="256" fill="#242938" rx="60"/><mask id="VisualStudio-Dark_svg__a" width="200" height="200" x="28" y="28" maskUnits="userSpaceOnUse" style="mask-type:alpha"><path fill="#fff" d="m64.666 197.166-33.332-25A8.25 8.25 0 0 1 28 165.5v-75a8.26 8.26 0 0 1 3.334-6.665l33.332-25a7.55 7.55 0 0 0-2.291 6.665v125a7.55 7.55 0 0 0 2.29 6.666"/><path fill="#fff" d="M224.29 62.71a8.4 8.4 0 0 0-4.625-1.376 8.1 8.1 0 0 0-5.75 2.332l-.581.584-66.5 63.75-36.794 35.291L76 195.915l-.584.585a8.1 8.1 0 0 1-5.75 2.334 8.37 8.37 0 0 1-5-1.669l-33.332-24.999a8.323 8.323 0 0 0 11.331-1.251l37-42.956 30.375-35.25 53.21-61.793A8.2 8.2 0 0 1 169.541 28a8.37 8.37 0 0 1 4.624 1.375z"/><path fill="#fff" d="m224.29 193.29-49.999 33.334a8.44 8.44 0 0 1-5.759 1.296 8.45 8.45 0 0 1-5.198-2.795l-53.294-61.834-30.374-35.332-37-42.919a8.37 8.37 0 0 0-11.332-1.206l33.332-25a8.38 8.38 0 0 1 5-1.668 8.08 8.08 0 0 1 5.75 2.334l.584.584 34.04 32.625L146.834 128l66.5 63.75.581.584a8.1 8.1 0 0 0 5.75 2.331 8.36 8.36 0 0 0 4.625-1.375"/><path fill="#fff" d="M228 69.666v116.668a8.36 8.36 0 0 1-3.71 6.956l-49.999 33.334a8.4 8.4 0 0 0 2.726-3.015 8.4 8.4 0 0 0 .982-3.944V36.335a8.43 8.43 0 0 0-3.834-6.96l50.125 33.334a8.4 8.4 0 0 1 3.71 6.956"/></mask><g mask="url(#VisualStudio-Dark_svg__a)"><path fill="#5E438F" d="m64.666 197.165-33.332-24.999A8.27 8.27 0 0 1 28 165.5v-75a8.26 8.26 0 0 1 3.334-6.666l33.332-25a7.55 7.55 0 0 0-2.291 6.666v125a7.55 7.55 0 0 0 2.29 6.665"/><g filter="url(#VisualStudio-Dark_svg__b)"><path fill="url(#VisualStudio-Dark_svg__c)" d="M224.289 62.71a8.37 8.37 0 0 0-4.624-1.376 8.1 8.1 0 0 0-5.75 2.332l-.581.584-35.42 33.96-31.08 29.79-36.794 35.291L76 195.915l-.585.585a8.1 8.1 0 0 1-5.75 2.334 8.37 8.37 0 0 1-5-1.669l-33.331-24.999a8.323 8.323 0 0 0 11.331-1.251l18.669-21.665 18.331-21.291 30.375-35.25 53.209-61.793a8.22 8.22 0 0 1 6.29-2.916 8.4 8.4 0 0 1 4.626 1.375z"/></g><g filter="url(#VisualStudio-Dark_svg__d)"><path fill="url(#VisualStudio-Dark_svg__e)" d="m224.289 193.29-49.999 33.335a8.44 8.44 0 0 1-10.956-1.5l-53.294-61.834-30.375-35.332-18.331-21.25-18.669-21.668a8.373 8.373 0 0 0-11.331-1.207l33.331-25a8.38 8.38 0 0 1 5-1.668 8.08 8.08 0 0 1 5.75 2.334l.584.584L110.04 92.71 146.834 128l31.124 29.835 35.376 33.915.581.585a8.1 8.1 0 0 0 5.75 2.33 8.36 8.36 0 0 0 4.624-1.375"/></g><g filter="url(#VisualStudio-Dark_svg__f)"><path fill="url(#VisualStudio-Dark_svg__g)" d="M228 69.665v116.668a8.37 8.37 0 0 1-3.71 6.957l-50 33.334a8.35 8.35 0 0 0 2.725-3.015 8.36 8.36 0 0 0 .984-3.944V36.335a8.43 8.43 0 0 0-3.834-6.96l50.125 33.334a8.4 8.4 0 0 1 2.721 3.017 8.4 8.4 0 0 1 .989 3.94"/></g></g><defs><linearGradient id="VisualStudio-Dark_svg__c" x1="190.499" x2="41.989" y1="28" y2="177.471" gradientUnits="userSpaceOnUse"><stop stop-color="#7252AA"/><stop offset="1" stop-color="#7252AA"/></linearGradient><linearGradient id="VisualStudio-Dark_svg__e" x1="46.75" x2="186.332" y1="64.457" y2="220.705" gradientUnits="userSpaceOnUse"><stop stop-color="#AE7FE2"/><stop offset="1" stop-color="#9A70D4"/></linearGradient><linearGradient id="VisualStudio-Dark_svg__g" x1="200.49" x2="200.49" y1="25.353" y2="226.456" gradientUnits="userSpaceOnUse"><stop stop-color="#D59DFF"/><stop offset="1" stop-color="#C18EF1"/></linearGradient><filter id="VisualStudio-Dark_svg__b" width="203.317" height="181.196" x="26.153" y="24.114" color-interpolation-filters="sRGB" filterUnits="userSpaceOnUse"><feFlood flood-opacity="0" result="BackgroundImageFix"/><feColorMatrix in="SourceAlpha" result="hardAlpha" values="0 0 0 0 0 0 0 0 0 0 0 0 0 0 0 0 0 0 127 0"/><feOffset dy=".246"/><feGaussianBlur stdDeviation=".246"/><feColorMatrix values="0 0 0 0 0 0 0 0 0 0 0 0 0 0 0 0 0 0 0.24 0"/><feBlend in2="BackgroundImageFix" result="effect1_dropShadow_217_156"/><feColorMatrix in="SourceAlpha" result="hardAlpha" values="0 0 0 0 0 0 0 0 0 0 0 0 0 0 0 0 0 0 127 0"/><feOffset dy="1.295"/><feGaussianBlur stdDeviation="2.59"/><feColorMatrix values="0 0 0 0 0 0 0 0 0 0 0 0 0 0 0 0 0 0 0.22 0"/><feBlend in2="effect1_dropShadow_217_156" result="effect2_dropShadow_217_156"/><feBlend in="SourceGraphic" in2="effect2_dropShadow_217_156" result="shape"/></filter><filter id="VisualStudio-Dark_svg__d" width="203.317" height="181.194" x="26.153" y="53.28" color-interpolation-filters="sRGB" filterUnits="userSpaceOnUse"><feFlood flood-opacity="0" result="BackgroundImageFix"/><feColorMatrix in="SourceAlpha" result="hardAlpha" values="0 0 0 0 0 0 0 0 0 0 0 0 0 0 0 0 0 0 127 0"/><feOffset dy=".246"/><feGaussianBlur stdDeviation=".246"/><feColorMatrix values="0 0 0 0 0 0 0 0 0 0 0 0 0 0 0 0 0 0 0.24 0"/><feBlend in2="BackgroundImageFix" result="effect1_dropShadow_217_156"/><feColorMatrix in="SourceAlpha" result="hardAlpha" values="0 0 0 0 0 0 0 0 0 0 0 0 0 0 0 0 0 0 127 0"/><feOffset dy="1.295"/><feGaussianBlur stdDeviation="2.59"/><feColorMatrix values="0 0 0 0 0 0 0 0 0 0 0 0 0 0 0 0 0 0 0.22 0"/><feBlend in2="effect1_dropShadow_217_156" result="effect2_dropShadow_217_156"/><feBlend in="SourceGraphic" in2="effect2_dropShadow_217_156" result="shape"/></filter><filter id="VisualStudio-Dark_svg__f" width="84.921" height="228.335" x="158.622" y="13.832" color-interpolation-filters="sRGB" filterUnits="userSpaceOnUse"><feFlood flood-opacity="0" result="BackgroundImageFix"/><feColorMatrix in="SourceAlpha" result="hardAlpha" values="0 0 0 0 0 0 0 0 0 0 0 0 0 0 0 0 0 0 127 0"/><feOffset/><feGaussianBlur stdDeviation=".13"/><feColorMatrix values="0 0 0 0 0 0 0 0 0 0 0 0 0 0 0 0 0 0 0.24 0"/><feBlend in2="BackgroundImageFix" result="effect1_dropShadow_217_156"/><feColorMatrix in="SourceAlpha" result="hardAlpha" values="0 0 0 0 0 0 0 0 0 0 0 0 0 0 0 0 0 0 127 0"/><feOffset/><feGaussianBlur stdDeviation="7.771"/><feColorMatrix values="0 0 0 0 0 0 0 0 0 0 0 0 0 0 0 0 0 0 0.3 0"/><feBlend in2="effect1_dropShadow_217_156" result="effect2_dropShadow_217_156"/><feBlend in="SourceGraphic" in2="effect2_dropShadow_217_156" result="shape"/></filter></defs></svg>