<svg xmlns="http://www.w3.org/2000/svg" width="256" height="256" fill="none" viewBox="0 0 256 256"><rect width="256" height="256" fill="#242938" rx="60"/><path fill="url(#Workers-Dark_svg__a)" d="m79.423 40.597 23.562 42.509-21.639 38.95a12.5 12.5 0 0 0 0 12.166l21.639 39.047-23.562 42.509a25 25 0 0 1-10.58-9.954l-37.508-65.158a25.1 25.1 0 0 1 0-25.005l37.508-65.158a25 25 0 0 1 10.58-9.906"/><path fill="url(#Workers-Dark_svg__b)" d="M81.346 122.104a12.51 12.51 0 0 0 0 12.118l21.639 39.047-23.562 42.509a25 25 0 0 1-10.58-9.954l-37.508-65.158c-2.981-5.145 13.705-11.3 50.011-18.513z" opacity=".7"/><path fill="url(#Workers-Dark_svg__c)" d="m81.827 44.876 21.158 38.23-3.51 6.107L80.817 57.62c-5.386-8.8-13.609-4.232-23.9 13.56l1.54-2.645 10.386-18.032a25 25 0 0 1 10.483-9.906l2.453 4.28z" opacity=".5"/><path fill="url(#Workers-Dark_svg__d)" d="m187.138 50.503 37.508 65.158c4.472 7.694 4.472 17.311 0 25.005l-37.508 65.158a25 25 0 0 1-21.639 12.503h-37.508l46.644-84.104a12.5 12.5 0 0 0 0-12.118L127.991 38h37.508a25 25 0 0 1 21.639 12.503"/><path fill="url(#Workers-Dark_svg__e)" d="m163.575 218.039-37.027.336 44.817-84.537a12.98 12.98 0 0 0 0-12.214L126.548 38h8.463l47.03 83.239a12.99 12.99 0 0 1-.048 12.887 7542 7542 0 0 0-30.151 52.896c-9.137 16.061-5.193 26.4 11.733 31.017"/><path fill="url(#Workers-Dark_svg__f)" d="M90.483 218.327c-3.847 0-7.694-.914-11.06-2.549l46.26-83.431a8.63 8.63 0 0 0 0-8.367l-46.26-83.383A25 25 0 0 1 90.483 38h37.508l46.644 84.105a12.5 12.5 0 0 1 0 12.118l-46.644 84.104z"/><path fill="url(#Workers-Dark_svg__g)" d="M171.365 123.98 123.663 38h4.328l46.644 84.105a12.5 12.5 0 0 1 0 12.118l-46.644 84.104h-4.328l47.702-85.98a8.63 8.63 0 0 0 0-8.367" opacity=".6"/><path fill="url(#Workers-Dark_svg__h)" d="m125.683 123.98-46.26-83.383c1.442-.77 3.173-1.347 4.808-1.828 10.195 18.322 25.246 46.116 45.202 83.336a12.5 12.5 0 0 1 0 12.118L83.51 217.365c-1.635-.48-2.5-.817-4.04-1.538l46.164-83.432a8.63 8.63 0 0 0 0-8.367z" opacity=".6"/><defs><linearGradient id="Workers-Dark_svg__a" x1="65.493" x2="-11.309" y1="215.778" y2="92.263" gradientUnits="userSpaceOnUse"><stop stop-color="#EB6F07"/><stop offset="1" stop-color="#FAB743"/></linearGradient><linearGradient id="Workers-Dark_svg__b" x1="89.307" x2="49.763" y1="200.51" y2="159.839" gradientUnits="userSpaceOnUse"><stop stop-color="#D96504"/><stop offset="1" stop-color="#D96504" stop-opacity="0"/></linearGradient><linearGradient id="Workers-Dark_svg__c" x1="76.266" x2="97.2" y1="44.826" y2="78.454" gradientUnits="userSpaceOnUse"><stop stop-color="#EB6F07"/><stop offset="1" stop-color="#EB720A" stop-opacity="0"/></linearGradient><linearGradient id="Workers-Dark_svg__d" x1="177.995" x2="109.226" y1="218.327" y2="75.029" gradientUnits="userSpaceOnUse"><stop stop-color="#EE6F05"/><stop offset="1" stop-color="#FAB743"/></linearGradient><linearGradient id="Workers-Dark_svg__e" x1="107.564" x2="217.671" y1="218.375" y2="190.429" gradientUnits="userSpaceOnUse"><stop stop-color="#D96504" stop-opacity=".8"/><stop offset=".498" stop-color="#D96504" stop-opacity=".2"/><stop offset="1" stop-color="#D96504" stop-opacity="0"/></linearGradient><linearGradient id="Workers-Dark_svg__f" x1="127.812" x2="57.639" y1="218.327" y2="76.826" gradientUnits="userSpaceOnUse"><stop stop-color="#FFA95F"/><stop offset="1" stop-color="#FFEBC8"/></linearGradient><linearGradient id="Workers-Dark_svg__g" x1="127.918" x2="186.439" y1="39.984" y2="49.184" gradientUnits="userSpaceOnUse"><stop stop-color="#fff" stop-opacity=".5"/><stop offset="1" stop-color="#fff" stop-opacity=".1"/></linearGradient><linearGradient id="Workers-Dark_svg__h" x1="72.357" x2="144.69" y1="224.866" y2="214.211" gradientUnits="userSpaceOnUse"><stop stop-color="#fff" stop-opacity=".5"/><stop offset="1" stop-color="#fff" stop-opacity=".1"/></linearGradient></defs></svg>